<svg width="40" height="40" viewBox="0 0 40 40" fill="none" xmlns="http://www.w3.org/2000/svg">
<path d="M40 20C40 25.5228 37.7614 30.5228 34.1421 34.1421C30.5228 37.7614 25.5228 40 20 40C14.4772 40 9.47715 37.7614 5.85786 34.1421C2.23858 30.5228 0 25.5228 0 20C0 14.4772 2.23858 9.47715 5.85786 5.85786C9.47715 2.23858 14.4772 0 20 0C25.5228 0 30.5228 2.23858 34.1421 5.85786C37.7614 9.47715 40 14.4772 40 20Z" fill="#4D5AE5"/>
<g clip-path="url(#clip0_297080_7896)">
<path d="M31.9941 32V31.999H32.0001V23.197C32.0001 18.891 31.0731 15.574 26.0391 15.574C23.6191 15.574 21.9951 16.902 21.3321 18.161H21.2621V15.976H16.4891V31.999H21.4591V24.065C21.4591 21.976 21.8551 19.956 24.4421 19.956C26.9911 19.956 27.0291 22.34 27.0291 24.199V32H31.9941Z" fill="#F4F4FD"/>
<path d="M8.39606 15.9771H13.3721V32H8.39606V15.9771Z" fill="#F4F4FD"/>
<path d="M10.8821 8C9.29106 8 8.00006 9.291 8.00006 10.882C8.00006 12.473 9.29106 13.791 10.8821 13.791C12.4731 13.791 13.7641 12.473 13.7641 10.882C13.7631 9.291 12.4721 8 10.8821 8V8Z" fill="#F4F4FD"/>
</g>
<defs>
<clipPath id="clip0_297080_7896">
<rect width="24" height="24" fill="white" transform="translate(8.00006 8)"/>
</clipPath>
</defs>
</svg>
