<svg width="24" height="24" viewBox="0 0 24 24" fill="none" xmlns="http://www.w3.org/2000/svg">
<g clip-path="url(#clip0_579909_406)">
<path d="M23.9941 24V23.999H24.0001V15.197C24.0001 10.891 23.0731 7.57397 18.0391 7.57397C15.6191 7.57397 13.9951 8.90197 13.3321 10.161H13.2621V7.97597H8.48907V23.999H13.4591V16.065C13.4591 13.976 13.8551 11.956 16.4421 11.956C18.9911 11.956 19.0291 14.34 19.0291 16.199V24H23.9941Z" fill="#F4F4FD"/>
<path d="M0.396057 7.97705H5.37206V24H0.396057V7.97705Z" fill="#F4F4FD"/>
<path d="M2.88206 0C1.29106 0 6.10352e-05 1.291 6.10352e-05 2.882C6.10352e-05 4.473 1.29106 5.791 2.88206 5.791C4.47306 5.791 5.76406 4.473 5.76406 2.882C5.76306 1.291 4.47206 0 2.88206 0V0Z" fill="#F4F4FD"/>
</g>
<defs>
<clipPath id="clip0_579909_406">
<rect width="24" height="24" fill="white"/>
</clipPath>
</defs>
</svg>
